# Blender 5.1.2
# www.blender.org
mtllib lab3.mtl
o Cube.004
v -2.137250 -0.006913 0.402940
v -2.137250 0.036710 0.402940
v -2.137250 -0.006913 -0.010671
v -2.137250 0.036710 -0.010671
v -1.732611 -0.006913 0.402940
v -1.732611 0.036710 0.402940
v -1.732611 -0.006913 -0.010671
v -1.732611 0.036710 -0.010671
vn -1.0000 -0.0000 -0.0000
vn -0.0000 -0.0000 -1.0000
vn 1.0000 -0.0000 -0.0000
vn -0.0000 -0.0000 1.0000
vn -0.0000 -1.0000 -0.0000
vn -0.0000 1.0000 -0.0000
vt 0.375000 0.000000
vt 0.625000 0.000000
vt 0.625000 0.250000
vt 0.375000 0.250000
vt 0.625000 0.500000
vt 0.375000 0.500000
vt 0.625000 0.750000
vt 0.375000 0.750000
vt 0.625000 1.000000
vt 0.375000 1.000000
vt 0.125000 0.500000
vt 0.125000 0.750000
vt 0.875000 0.500000
vt 0.875000 0.750000
s 0
f 1/1/1 2/2/1 4/3/1 3/4/1
f 3/4/2 4/3/2 8/5/2 7/6/2
f 7/6/3 8/5/3 6/7/3 5/8/3
f 5/8/4 6/7/4 2/9/4 1/10/4
f 3/11/5 7/6/5 5/8/5 1/12/5
f 8/5/6 4/13/6 2/14/6 6/7/6
o Cube.005
v -1.870407 0.038075 0.356182
v -1.870407 0.988804 0.356182
v -1.870407 0.038075 0.242545
v -1.870407 0.988804 0.242545
v -1.755851 0.038075 0.356182
v -1.755851 0.988804 0.356182
v -1.755851 0.038075 0.242545
v -1.755851 0.988804 0.242545
vn -1.0000 -0.0000 -0.0000
vn -0.0000 -0.0000 -1.0000
vn 1.0000 -0.0000 -0.0000
vn -0.0000 -0.0000 1.0000
vn -0.0000 -1.0000 -0.0000
vn -0.0000 1.0000 -0.0000
vt 0.375000 0.000000
vt 0.625000 0.000000
vt 0.625000 0.250000
vt 0.375000 0.250000
vt 0.625000 0.500000
vt 0.375000 0.500000
vt 0.625000 0.750000
vt 0.375000 0.750000
vt 0.625000 1.000000
vt 0.375000 1.000000
vt 0.125000 0.500000
vt 0.125000 0.750000
vt 0.875000 0.500000
vt 0.875000 0.750000
s 0
f 9/15/7 10/16/7 12/17/7 11/18/7
f 11/18/8 12/17/8 16/19/8 15/20/8
f 15/20/9 16/19/9 14/21/9 13/22/9
f 13/22/10 14/21/10 10/23/10 9/24/10
f 11/25/11 15/20/11 13/22/11 9/26/11
f 16/19/12 12/27/12 10/28/12 14/21/12
o Cube.001
v -0.410225 -0.006913 0.402940
v -0.410225 0.036710 0.402940
v -0.410225 -0.006913 -0.010671
v -0.410225 0.036710 -0.010671
v 0.024031 -0.006913 0.402940
v 0.024031 0.036710 0.402940
v 0.024031 -0.006913 -0.010671
v 0.024031 0.036710 -0.010671
vn -1.0000 -0.0000 -0.0000
vn -0.0000 -0.0000 -1.0000
vn 1.0000 -0.0000 -0.0000
vn -0.0000 -0.0000 1.0000
vn -0.0000 -1.0000 -0.0000
vn -0.0000 1.0000 -0.0000
vt 0.375000 0.000000
vt 0.625000 0.000000
vt 0.625000 0.250000
vt 0.375000 0.250000
vt 0.625000 0.500000
vt 0.375000 0.500000
vt 0.625000 0.750000
vt 0.375000 0.750000
vt 0.625000 1.000000
vt 0.375000 1.000000
vt 0.125000 0.500000
vt 0.125000 0.750000
vt 0.875000 0.500000
vt 0.875000 0.750000
s 0
f 17/29/13 18/30/13 20/31/13 19/32/13
f 19/32/14 20/31/14 24/33/14 23/34/14
f 23/34/15 24/33/15 22/35/15 21/36/15
f 21/36/16 22/35/16 18/37/16 17/38/16
f 19/39/17 23/34/17 21/36/17 17/40/17
f 24/33/18 20/41/18 18/42/18 22/35/18
o Cube.002
v -0.236182 0.038075 0.356182
v -0.236182 0.988804 0.356182
v -0.236182 0.038075 0.242545
v -0.236182 0.988804 0.242545
v -0.121626 0.038075 0.356182
v -0.121626 0.988804 0.356182
v -0.121626 0.038075 0.242545
v -0.121626 0.988804 0.242545
vn -1.0000 -0.0000 -0.0000
vn -0.0000 -0.0000 -1.0000
vn 1.0000 -0.0000 -0.0000
vn -0.0000 -0.0000 1.0000
vn -0.0000 -1.0000 -0.0000
vn -0.0000 1.0000 -0.0000
vt 0.375000 0.000000
vt 0.625000 0.000000
vt 0.625000 0.250000
vt 0.375000 0.250000
vt 0.625000 0.500000
vt 0.375000 0.500000
vt 0.625000 0.750000
vt 0.375000 0.750000
vt 0.625000 1.000000
vt 0.375000 1.000000
vt 0.125000 0.500000
vt 0.125000 0.750000
vt 0.875000 0.500000
vt 0.875000 0.750000
s 0
f 25/43/19 26/44/19 28/45/19 27/46/19
f 27/46/20 28/45/20 32/47/20 31/48/20
f 31/48/21 32/47/21 30/49/21 29/50/21
f 29/50/22 30/49/22 26/51/22 25/52/22
f 27/53/23 31/48/23 29/50/23 25/54/23
f 32/47/24 28/55/24 26/56/24 30/49/24
o Cube
v -1.929362 0.827006 0.394029
v -1.929362 0.996592 0.394029
v -1.929362 0.827006 0.216545
v -1.929362 0.996592 0.216545
v 0.106097 0.827006 0.394029
v 0.106097 0.996592 0.394029
v 0.106097 0.827006 0.216545
v 0.106097 0.996592 0.216545
vn -1.0000 -0.0000 -0.0000
vn -0.0000 -0.0000 -1.0000
vn 1.0000 -0.0000 -0.0000
vn -0.0000 -0.0000 1.0000
vn -0.0000 -1.0000 -0.0000
vn -0.0000 1.0000 -0.0000
vt 0.375000 0.000000
vt 0.625000 0.000000
vt 0.625000 0.250000
vt 0.375000 0.250000
vt 0.625000 0.500000
vt 0.375000 0.500000
vt 0.625000 0.750000
vt 0.375000 0.750000
vt 0.625000 1.000000
vt 0.375000 1.000000
vt 0.125000 0.500000
vt 0.125000 0.750000
vt 0.875000 0.500000
vt 0.875000 0.750000
s 0
f 33/57/25 34/58/25 36/59/25 35/60/25
f 35/60/26 36/59/26 40/61/26 39/62/26
f 39/62/27 40/61/27 38/63/27 37/64/27
f 37/64/28 38/63/28 34/65/28 33/66/28
f 35/67/29 39/62/29 37/64/29 33/68/29
f 40/61/30 36/69/30 34/70/30 38/63/30
o Cube.003
v -1.024060 0.777960 0.216727
v -1.024060 0.999667 0.216727
v -1.024060 0.777960 -0.156628
v -1.024060 0.999667 -0.156628
v -0.832899 0.777960 -0.156628
v -0.832899 0.999667 -0.156628
v -0.832899 0.777960 0.216727
v -0.832899 0.999667 0.216727
vn -1.0000 -0.0000 -0.0000
vn -0.0000 -0.0000 1.0000
vn -0.0000 1.0000 -0.0000
vn -0.0000 -1.0000 -0.0000
vn -0.0000 -0.0000 -1.0000
vn 1.0000 -0.0000 -0.0000
vt 0.375000 0.000000
vt 0.625000 0.000000
vt 0.625000 0.250000
vt 0.375000 0.250000
vt 0.375000 0.875000
vt 0.625000 0.875000
vt 0.625000 1.000000
vt 0.375000 1.000000
vt 0.750000 0.500000
vt 0.875000 0.500000
vt 0.875000 0.750000
vt 0.750000 0.750000
vt 0.125000 0.500000
vt 0.250000 0.500000
vt 0.250000 0.750000
vt 0.125000 0.750000
vt 0.625000 0.375000
vt 0.375000 0.375000
s 0
f 41/71/31 42/72/31 44/73/31 43/74/31
f 47/75/32 48/76/32 42/77/32 41/78/32
f 46/79/33 44/80/33 42/81/33 48/82/33
f 43/83/34 45/84/34 47/85/34 41/86/34
f 43/74/35 44/73/35 46/87/35 45/88/35
f 48/76/36 47/75/36 45/84/36 46/87/36
o Cylinder
v -0.726965 0.749711 -0.080616
v -0.726965 1.762409 -0.080616
v -0.719011 0.749711 -0.079833
v -0.719011 1.762409 -0.079833
v -0.711363 0.749711 -0.077513
v -0.711363 1.762409 -0.077513
v -0.704315 0.749711 -0.073745
v -0.704315 1.762409 -0.073745
v -0.698136 0.749711 -0.068675
v -0.698136 1.762409 -0.068675
v -0.693066 0.749711 -0.062497
v -0.693066 1.762409 -0.062497
v -0.689299 0.749711 -0.055449
v -0.689299 1.762409 -0.055449
v -0.686979 0.749711 -0.047801
v -0.686979 1.762409 -0.047801
v -0.686195 0.749711 -0.039847
v -0.686195 1.762409 -0.039847
v -0.686979 0.749711 -0.031893
v -0.686979 1.762409 -0.031893
v -0.689299 0.749711 -0.024245
v -0.689299 1.762409 -0.024245
v -0.693066 0.749711 -0.017197
v -0.693066 1.762409 -0.017197
v -0.698136 0.749711 -0.011018
v -0.698136 1.762409 -0.011018
v -0.704315 0.749711 -0.005948
v -0.704315 1.762409 -0.005948
v -0.711363 0.749711 -0.002181
v -0.711363 1.762409 -0.002181
v -0.719011 0.749711 0.000139
v -0.719011 1.762409 0.000139
v -0.726965 0.749711 0.000923
v -0.726965 1.762409 0.000923
v -0.734919 0.749711 0.000139
v -0.734919 1.762409 0.000139
v -0.742567 0.749711 -0.002181
v -0.742567 1.762409 -0.002181
v -0.749615 0.749711 -0.005948
v -0.749615 1.762409 -0.005948
v -0.755793 0.749711 -0.011018
v -0.755793 1.762409 -0.011018
v -0.760863 0.749711 -0.017197
v -0.760863 1.762409 -0.017197
v -0.764631 0.749711 -0.024245
v -0.764631 1.762409 -0.024245
v -0.766951 0.749711 -0.031893
v -0.766951 1.762409 -0.031893
v -0.767734 0.749711 -0.039847
v -0.767734 1.762409 -0.039847
v -0.766951 0.749711 -0.047801
v -0.766951 1.762409 -0.047801
v -0.764631 0.749711 -0.055449
v -0.764631 1.762409 -0.055449
v -0.760863 0.749711 -0.062497
v -0.760863 1.762409 -0.062497
v -0.755793 0.749711 -0.068675
v -0.755793 1.762409 -0.068675
v -0.749615 0.749711 -0.073745
v -0.749615 1.762409 -0.073745
v -0.742567 0.749711 -0.077513
v -0.742567 1.762409 -0.077513
v -0.734919 0.749711 -0.079833
v -0.734919 1.762409 -0.079833
v -0.925991 0.749711 -0.080616
v -0.925991 1.762409 -0.080616
v -0.918038 0.749711 -0.079833
v -0.918038 1.762409 -0.079833
v -0.910390 0.749711 -0.077513
v -0.910390 1.762409 -0.077513
v -0.903341 0.749711 -0.073745
v -0.903341 1.762409 -0.073745
v -0.897163 0.749711 -0.068675
v -0.897163 1.762409 -0.068675
v -0.892093 0.749711 -0.062497
v -0.892093 1.762409 -0.062497
v -0.888325 0.749711 -0.055449
v -0.888325 1.762409 -0.055449
v -0.886005 0.749711 -0.047801
v -0.886005 1.762409 -0.047801
v -0.885222 0.749711 -0.039847
v -0.885222 1.762409 -0.039847
v -0.886005 0.749711 -0.031893
v -0.886005 1.762409 -0.031893
v -0.888325 0.749711 -0.024245
v -0.888325 1.762409 -0.024245
v -0.892093 0.749711 -0.017197
v -0.892093 1.762409 -0.017197
v -0.897163 0.749711 -0.011018
v -0.897163 1.762409 -0.011018
v -0.903341 0.749711 -0.005948
v -0.903341 1.762409 -0.005948
v -0.910390 0.749711 -0.002181
v -0.910390 1.762409 -0.002181
v -0.918038 0.749711 0.000139
v -0.918038 1.762409 0.000139
v -0.925991 0.749711 0.000923
v -0.925991 1.762409 0.000923
v -0.933945 0.749711 0.000139
v -0.933945 1.762409 0.000139
v -0.941593 0.749711 -0.002181
v -0.941593 1.762409 -0.002181
v -0.948642 0.749711 -0.005948
v -0.948642 1.762409 -0.005948
v -0.954820 0.749711 -0.011018
v -0.954820 1.762409 -0.011018
v -0.959890 0.749711 -0.017197
v -0.959890 1.762409 -0.017197
v -0.963657 0.749711 -0.024245
v -0.963657 1.762409 -0.024245
v -0.965977 0.749711 -0.031893
v -0.965977 1.762409 -0.031893
v -0.966761 0.749711 -0.039847
v -0.966761 1.762409 -0.039847
v -0.965977 0.749711 -0.047801
v -0.965977 1.762409 -0.047801
v -0.963657 0.749711 -0.055449
v -0.963657 1.762409 -0.055449
v -0.959890 0.749711 -0.062497
v -0.959890 1.762409 -0.062497
v -0.954820 0.749711 -0.068675
v -0.954820 1.762409 -0.068675
v -0.948642 0.749711 -0.073745
v -0.948642 1.762409 -0.073745
v -0.941593 0.749711 -0.077513
v -0.941593 1.762409 -0.077513
v -0.933945 0.749711 -0.079833
v -0.933945 1.762409 -0.079833
vn 0.0980 -0.0000 -0.9952
vn 0.2903 -0.0000 -0.9569
vn 0.4714 -0.0000 -0.8819
vn 0.6344 -0.0000 -0.7730
vn 0.7730 -0.0000 -0.6344
vn 0.8819 -0.0000 -0.4714
vn 0.9569 -0.0000 -0.2903
vn 0.9952 -0.0000 -0.0980
vn 0.9952 -0.0000 0.0980
vn 0.9569 -0.0000 0.2903
vn 0.8819 -0.0000 0.4714
vn 0.7730 -0.0000 0.6344
vn 0.6344 -0.0000 0.7730
vn 0.4714 -0.0000 0.8819
vn 0.2903 -0.0000 0.9569
vn 0.0980 -0.0000 0.9952
vn -0.0980 -0.0000 0.9952
vn -0.2903 -0.0000 0.9569
vn -0.4714 -0.0000 0.8819
vn -0.6344 -0.0000 0.7730
vn -0.7730 -0.0000 0.6344
vn -0.8819 -0.0000 0.4714
vn -0.9569 -0.0000 0.2903
vn -0.9952 -0.0000 0.0980
vn -0.9952 -0.0000 -0.0980
vn -0.9569 -0.0000 -0.2903
vn -0.8819 -0.0000 -0.4714
vn -0.7730 -0.0000 -0.6344
vn -0.6344 -0.0000 -0.7730
vn -0.4714 -0.0000 -0.8819
vn -0.0000 1.0000 -0.0000
vn -0.2903 -0.0000 -0.9569
vn -0.0980 -0.0000 -0.9952
vn -0.0000 -1.0000 -0.0000
vt 1.000000 0.500000
vt 1.000000 1.000000
vt 0.968750 1.000000
vt 0.968750 0.500000
vt 0.937500 1.000000
vt 0.937500 0.500000
vt 0.906250 1.000000
vt 0.906250 0.500000
vt 0.875000 1.000000
vt 0.875000 0.500000
vt 0.843750 1.000000
vt 0.843750 0.500000
vt 0.812500 1.000000
vt 0.812500 0.500000
vt 0.781250 1.000000
vt 0.781250 0.500000
vt 0.750000 1.000000
vt 0.750000 0.500000
vt 0.718750 1.000000
vt 0.718750 0.500000
vt 0.687500 1.000000
vt 0.687500 0.500000
vt 0.656250 1.000000
vt 0.656250 0.500000
vt 0.625000 1.000000
vt 0.625000 0.500000
vt 0.593750 1.000000
vt 0.593750 0.500000
vt 0.562500 1.000000
vt 0.562500 0.500000
vt 0.531250 1.000000
vt 0.531250 0.500000
vt 0.500000 1.000000
vt 0.500000 0.500000
vt 0.468750 1.000000
vt 0.468750 0.500000
vt 0.437500 1.000000
vt 0.437500 0.500000
vt 0.406250 1.000000
vt 0.406250 0.500000
vt 0.375000 1.000000
vt 0.375000 0.500000
vt 0.343750 1.000000
vt 0.343750 0.500000
vt 0.312500 1.000000
vt 0.312500 0.500000
vt 0.281250 1.000000
vt 0.281250 0.500000
vt 0.250000 1.000000
vt 0.250000 0.500000
vt 0.218750 1.000000
vt 0.218750 0.500000
vt 0.187500 1.000000
vt 0.187500 0.500000
vt 0.156250 1.000000
vt 0.156250 0.500000
vt 0.125000 1.000000
vt 0.125000 0.500000
vt 0.093750 1.000000
vt 0.093750 0.500000
vt 0.062500 1.000000
vt 0.062500 0.500000
vt 0.296822 0.485388
vt 0.250000 0.490000
vt 0.203178 0.485388
vt 0.158156 0.471731
vt 0.116663 0.449553
vt 0.080294 0.419706
vt 0.050447 0.383337
vt 0.028269 0.341844
vt 0.014612 0.296822
vt 0.010000 0.250000
vt 0.014612 0.203178
vt 0.028269 0.158156
vt 0.050447 0.116663
vt 0.080294 0.080294
vt 0.116663 0.050447
vt 0.158156 0.028269
vt 0.203178 0.014612
vt 0.250000 0.010000
vt 0.296822 0.014612
vt 0.341844 0.028269
vt 0.383337 0.050447
vt 0.419706 0.080294
vt 0.449553 0.116663
vt 0.471731 0.158156
vt 0.485388 0.203178
vt 0.490000 0.250000
vt 0.485388 0.296822
vt 0.471731 0.341844
vt 0.449553 0.383337
vt 0.419706 0.419706
vt 0.383337 0.449553
vt 0.341844 0.471731
vt 0.031250 1.000000
vt 0.031250 0.500000
vt 0.000000 1.000000
vt 0.000000 0.500000
vt 0.750000 0.490000
vt 0.796822 0.485388
vt 0.841844 0.471731
vt 0.883337 0.449553
vt 0.919706 0.419706
vt 0.949553 0.383337
vt 0.971731 0.341844
vt 0.985388 0.296822
vt 0.990000 0.250000
vt 0.985388 0.203178
vt 0.971731 0.158156
vt 0.949553 0.116663
vt 0.919706 0.080294
vt 0.883337 0.050447
vt 0.841844 0.028269
vt 0.796822 0.014612
vt 0.750000 0.010000
vt 0.703178 0.014612
vt 0.658156 0.028269
vt 0.616663 0.050447
vt 0.580294 0.080294
vt 0.550447 0.116663
vt 0.528269 0.158156
vt 0.514612 0.203178
vt 0.510000 0.250000
vt 0.514612 0.296822
vt 0.528269 0.341844
vt 0.550447 0.383337
vt 0.580294 0.419706
vt 0.616663 0.449553
vt 0.658156 0.471731
vt 0.703178 0.485388
s 0
f 49/89/37 50/90/37 52/91/37 51/92/37
f 51/92/38 52/91/38 54/93/38 53/94/38
f 53/94/39 54/93/39 56/95/39 55/96/39
f 55/96/40 56/95/40 58/97/40 57/98/40
f 57/98/41 58/97/41 60/99/41 59/100/41
f 59/100/42 60/99/42 62/101/42 61/102/42
f 61/102/43 62/101/43 64/103/43 63/104/43
f 63/104/44 64/103/44 66/105/44 65/106/44
f 65/106/45 66/105/45 68/107/45 67/108/45
f 67/108/46 68/107/46 70/109/46 69/110/46
f 69/110/47 70/109/47 72/111/47 71/112/47
f 71/112/48 72/111/48 74/113/48 73/114/48
f 73/114/49 74/113/49 76/115/49 75/116/49
f 75/116/50 76/115/50 78/117/50 77/118/50
f 77/118/51 78/117/51 80/119/51 79/120/51
f 79/120/52 80/119/52 82/121/52 81/122/52
f 81/122/53 82/121/53 84/123/53 83/124/53
f 83/124/54 84/123/54 86/125/54 85/126/54
f 85/126/55 86/125/55 88/127/55 87/128/55
f 87/128/56 88/127/56 90/129/56 89/130/56
f 89/130/57 90/129/57 92/131/57 91/132/57
f 91/132/58 92/131/58 94/133/58 93/134/58
f 93/134/59 94/133/59 96/135/59 95/136/59
f 95/136/60 96/135/60 98/137/60 97/138/60
f 97/138/61 98/137/61 100/139/61 99/140/61
f 99/140/62 100/139/62 102/141/62 101/142/62
f 101/142/63 102/141/63 104/143/63 103/144/63
f 103/144/64 104/143/64 106/145/64 105/146/64
f 105/146/65 106/145/65 108/147/65 107/148/65
f 107/148/66 108/147/66 110/149/66 109/150/66
f 52/151/67 50/152/67 112/153/67 110/154/67 108/155/67 106/156/67 104/157/67 102/158/67 100/159/67 98/160/67 96/161/67 94/162/67 92/163/67 90/164/67 88/165/67 86/166/67 84/167/67 82/168/67 80/169/67 78/170/67 76/171/67 74/172/67 72/173/67 70/174/67 68/175/67 66/176/67 64/177/67 62/178/67 60/179/67 58/180/67 56/181/67 54/182/67
f 109/150/68 110/149/68 112/183/68 111/184/68
f 111/184/69 112/183/69 50/185/69 49/186/69
f 49/187/70 51/188/70 53/189/70 55/190/70 57/191/70 59/192/70 61/193/70 63/194/70 65/195/70 67/196/70 69/197/70 71/198/70 73/199/70 75/200/70 77/201/70 79/202/70 81/203/70 83/204/70 85/205/70 87/206/70 89/207/70 91/208/70 93/209/70 95/210/70 97/211/70 99/212/70 101/213/70 103/214/70 105/215/70 107/216/70 109/217/70 111/218/70
f 113/89/37 114/90/37 116/91/37 115/92/37
f 115/92/38 116/91/38 118/93/38 117/94/38
f 117/94/39 118/93/39 120/95/39 119/96/39
f 119/96/40 120/95/40 122/97/40 121/98/40
f 121/98/41 122/97/41 124/99/41 123/100/41
f 123/100/42 124/99/42 126/101/42 125/102/42
f 125/102/43 126/101/43 128/103/43 127/104/43
f 127/104/44 128/103/44 130/105/44 129/106/44
f 129/106/45 130/105/45 132/107/45 131/108/45
f 131/108/46 132/107/46 134/109/46 133/110/46
f 133/110/47 134/109/47 136/111/47 135/112/47
f 135/112/48 136/111/48 138/113/48 137/114/48
f 137/114/49 138/113/49 140/115/49 139/116/49
f 139/116/50 140/115/50 142/117/50 141/118/50
f 141/118/51 142/117/51 144/119/51 143/120/51
f 143/120/52 144/119/52 146/121/52 145/122/52
f 145/122/53 146/121/53 148/123/53 147/124/53
f 147/124/54 148/123/54 150/125/54 149/126/54
f 149/126/55 150/125/55 152/127/55 151/128/55
f 151/128/56 152/127/56 154/129/56 153/130/56
f 153/130/57 154/129/57 156/131/57 155/132/57
f 155/132/58 156/131/58 158/133/58 157/134/58
f 157/134/59 158/133/59 160/135/59 159/136/59
f 159/136/60 160/135/60 162/137/60 161/138/60
f 161/138/61 162/137/61 164/139/61 163/140/61
f 163/140/62 164/139/62 166/141/62 165/142/62
f 165/142/63 166/141/63 168/143/63 167/144/63
f 167/144/64 168/143/64 170/145/64 169/146/64
f 169/146/65 170/145/65 172/147/65 171/148/65
f 171/148/66 172/147/66 174/149/66 173/150/66
f 116/151/67 114/152/67 176/153/67 174/154/67 172/155/67 170/156/67 168/157/67 166/158/67 164/159/67 162/160/67 160/161/67 158/162/67 156/163/67 154/164/67 152/165/67 150/166/67 148/167/67 146/168/67 144/169/67 142/170/67 140/171/67 138/172/67 136/173/67 134/174/67 132/175/67 130/176/67 128/177/67 126/178/67 124/179/67 122/180/67 120/181/67 118/182/67
f 173/150/68 174/149/68 176/183/68 175/184/68
f 175/184/69 176/183/69 114/185/69 113/186/69
f 113/187/70 115/188/70 117/189/70 119/190/70 121/191/70 123/192/70 125/193/70 127/194/70 129/195/70 131/196/70 133/197/70 135/198/70 137/199/70 139/200/70 141/201/70 143/202/70 145/203/70 147/204/70 149/205/70 151/206/70 153/207/70 155/208/70 157/209/70 159/210/70 161/211/70 163/212/70 165/213/70 167/214/70 169/215/70 171/216/70 173/217/70 175/218/70
o Cylinder.001
v -0.726965 0.637814 -0.096264
v -0.726965 0.750648 -0.096264
v -0.715959 0.637814 -0.095180
v -0.715959 0.750648 -0.095180
v -0.705375 0.637814 -0.091969
v -0.705375 0.750648 -0.091969
v -0.695621 0.637814 -0.086756
v -0.695621 0.750648 -0.086756
v -0.687072 0.637814 -0.079739
v -0.687072 0.750648 -0.079739
v -0.680056 0.637814 -0.071190
v -0.680056 0.750648 -0.071190
v -0.674843 0.637814 -0.061437
v -0.674843 0.750648 -0.061437
v -0.671632 0.637814 -0.050853
v -0.671632 0.750648 -0.050853
v -0.670548 0.637814 -0.039847
v -0.670548 0.750648 -0.039847
v -0.671632 0.637814 -0.028840
v -0.671632 0.750648 -0.028840
v -0.674843 0.637814 -0.018257
v -0.674843 0.750648 -0.018257
v -0.680056 0.637814 -0.008503
v -0.680056 0.750648 -0.008503
v -0.687072 0.637814 0.000046
v -0.687072 0.750648 0.000046
v -0.695621 0.637814 0.007062
v -0.695621 0.750648 0.007062
v -0.705375 0.637814 0.012276
v -0.705375 0.750648 0.012276
v -0.715959 0.637814 0.015486
v -0.715959 0.750648 0.015486
v -0.726965 0.637814 0.016570
v -0.726965 0.750648 0.016570
v -0.737971 0.637814 0.015486
v -0.737971 0.750648 0.015486
v -0.748555 0.637814 0.012276
v -0.748555 0.750648 0.012276
v -0.758308 0.637814 0.007062
v -0.758308 0.750648 0.007062
v -0.766858 0.637814 0.000046
v -0.766858 0.750648 0.000046
v -0.773874 0.637814 -0.008503
v -0.773874 0.750648 -0.008503
v -0.779087 0.637814 -0.018257
v -0.779087 0.750648 -0.018257
v -0.782298 0.637814 -0.028840
v -0.782298 0.750648 -0.028840
v -0.783382 0.637814 -0.039847
v -0.783382 0.750648 -0.039847
v -0.782298 0.637814 -0.050853
v -0.782298 0.750648 -0.050853
v -0.779087 0.637814 -0.061437
v -0.779087 0.750648 -0.061437
v -0.773874 0.637814 -0.071190
v -0.773874 0.750648 -0.071190
v -0.766858 0.637814 -0.079739
v -0.766858 0.750648 -0.079739
v -0.758308 0.637814 -0.086756
v -0.758308 0.750648 -0.086756
v -0.748555 0.637814 -0.091969
v -0.748555 0.750648 -0.091969
v -0.737971 0.637814 -0.095180
v -0.737971 0.750648 -0.095180
v -0.926926 0.637814 -0.096264
v -0.926926 0.750648 -0.096264
v -0.915919 0.637814 -0.095180
v -0.915919 0.750648 -0.095180
v -0.905336 0.637814 -0.091969
v -0.905336 0.750648 -0.091969
v -0.895582 0.637814 -0.086756
v -0.895582 0.750648 -0.086756
v -0.887033 0.637814 -0.079739
v -0.887033 0.750648 -0.079739
v -0.880017 0.637814 -0.071190
v -0.880017 0.750648 -0.071190
v -0.874803 0.637814 -0.061437
v -0.874803 0.750648 -0.061437
v -0.871593 0.637814 -0.050853
v -0.871593 0.750648 -0.050853
v -0.870509 0.637814 -0.039847
v -0.870509 0.750648 -0.039847
v -0.871593 0.637814 -0.028840
v -0.871593 0.750648 -0.028840
v -0.874803 0.637814 -0.018257
v -0.874803 0.750648 -0.018257
v -0.880017 0.637814 -0.008503
v -0.880017 0.750648 -0.008503
v -0.887033 0.637814 0.000046
v -0.887033 0.750648 0.000046
v -0.895582 0.637814 0.007062
v -0.895582 0.750648 0.007062
v -0.905336 0.637814 0.012276
v -0.905336 0.750648 0.012276
v -0.915919 0.637814 0.015486
v -0.915919 0.750648 0.015486
v -0.926926 0.637814 0.016570
v -0.926926 0.750648 0.016570
v -0.937932 0.637814 0.015486
v -0.937932 0.750648 0.015486
v -0.948515 0.637814 0.012276
v -0.948515 0.750648 0.012276
v -0.958269 0.637814 0.007062
v -0.958269 0.750648 0.007062
v -0.966818 0.637814 0.000046
v -0.966818 0.750648 0.000046
v -0.973834 0.637814 -0.008503
v -0.973834 0.750648 -0.008503
v -0.979048 0.637814 -0.018257
v -0.979048 0.750648 -0.018257
v -0.982258 0.637814 -0.028840
v -0.982258 0.750648 -0.028840
v -0.983342 0.637814 -0.039847
v -0.983342 0.750648 -0.039847
v -0.982258 0.637814 -0.050853
v -0.982258 0.750648 -0.050853
v -0.979048 0.637814 -0.061437
v -0.979048 0.750648 -0.061437
v -0.973834 0.637814 -0.071190
v -0.973834 0.750648 -0.071190
v -0.966818 0.637814 -0.079739
v -0.966818 0.750648 -0.079739
v -0.958269 0.637814 -0.086756
v -0.958269 0.750648 -0.086756
v -0.948515 0.637814 -0.091969
v -0.948515 0.750648 -0.091969
v -0.937932 0.637814 -0.095180
v -0.937932 0.750648 -0.095180
vn 0.0980 -0.0000 -0.9952
vn 0.2903 -0.0000 -0.9569
vn 0.4714 -0.0000 -0.8819
vn 0.6344 -0.0000 -0.7730
vn 0.7730 -0.0000 -0.6344
vn 0.8819 -0.0000 -0.4714
vn 0.9569 -0.0000 -0.2903
vn 0.9952 -0.0000 -0.0980
vn 0.9952 -0.0000 0.0980
vn 0.9569 -0.0000 0.2903
vn 0.8819 -0.0000 0.4714
vn 0.7730 -0.0000 0.6344
vn 0.6344 -0.0000 0.7730
vn 0.4714 -0.0000 0.8819
vn 0.2903 -0.0000 0.9569
vn 0.0980 -0.0000 0.9952
vn -0.0980 -0.0000 0.9952
vn -0.2903 -0.0000 0.9569
vn -0.4714 -0.0000 0.8819
vn -0.6344 -0.0000 0.7730
vn -0.7730 -0.0000 0.6344
vn -0.8819 -0.0000 0.4714
vn -0.9569 -0.0000 0.2903
vn -0.9952 -0.0000 0.0980
vn -0.9952 -0.0000 -0.0980
vn -0.9569 -0.0000 -0.2903
vn -0.8819 -0.0000 -0.4714
vn -0.7730 -0.0000 -0.6344
vn -0.6344 -0.0000 -0.7730
vn -0.4714 -0.0000 -0.8819
vn -0.0000 1.0000 -0.0000
vn -0.2903 -0.0000 -0.9569
vn -0.0980 -0.0000 -0.9952
vn -0.0000 -1.0000 -0.0000
vt 1.000000 0.500000
vt 1.000000 1.000000
vt 0.968750 1.000000
vt 0.968750 0.500000
vt 0.937500 1.000000
vt 0.937500 0.500000
vt 0.906250 1.000000
vt 0.906250 0.500000
vt 0.875000 1.000000
vt 0.875000 0.500000
vt 0.843750 1.000000
vt 0.843750 0.500000
vt 0.812500 1.000000
vt 0.812500 0.500000
vt 0.781250 1.000000
vt 0.781250 0.500000
vt 0.750000 1.000000
vt 0.750000 0.500000
vt 0.718750 1.000000
vt 0.718750 0.500000
vt 0.687500 1.000000
vt 0.687500 0.500000
vt 0.656250 1.000000
vt 0.656250 0.500000
vt 0.625000 1.000000
vt 0.625000 0.500000
vt 0.593750 1.000000
vt 0.593750 0.500000
vt 0.562500 1.000000
vt 0.562500 0.500000
vt 0.531250 1.000000
vt 0.531250 0.500000
vt 0.500000 1.000000
vt 0.500000 0.500000
vt 0.468750 1.000000
vt 0.468750 0.500000
vt 0.437500 1.000000
vt 0.437500 0.500000
vt 0.406250 1.000000
vt 0.406250 0.500000
vt 0.375000 1.000000
vt 0.375000 0.500000
vt 0.343750 1.000000
vt 0.343750 0.500000
vt 0.312500 1.000000
vt 0.312500 0.500000
vt 0.281250 1.000000
vt 0.281250 0.500000
vt 0.250000 1.000000
vt 0.250000 0.500000
vt 0.218750 1.000000
vt 0.218750 0.500000
vt 0.187500 1.000000
vt 0.187500 0.500000
vt 0.156250 1.000000
vt 0.156250 0.500000
vt 0.125000 1.000000
vt 0.125000 0.500000
vt 0.093750 1.000000
vt 0.093750 0.500000
vt 0.062500 1.000000
vt 0.062500 0.500000
vt 0.296822 0.485388
vt 0.250000 0.490000
vt 0.203178 0.485388
vt 0.158156 0.471731
vt 0.116663 0.449553
vt 0.080294 0.419706
vt 0.050447 0.383337
vt 0.028269 0.341844
vt 0.014612 0.296822
vt 0.010000 0.250000
vt 0.014612 0.203178
vt 0.028269 0.158156
vt 0.050447 0.116663
vt 0.080294 0.080294
vt 0.116663 0.050447
vt 0.158156 0.028269
vt 0.203178 0.014612
vt 0.250000 0.010000
vt 0.296822 0.014612
vt 0.341844 0.028269
vt 0.383337 0.050447
vt 0.419706 0.080294
vt 0.449553 0.116663
vt 0.471731 0.158156
vt 0.485388 0.203178
vt 0.490000 0.250000
vt 0.485388 0.296822
vt 0.471731 0.341844
vt 0.449553 0.383337
vt 0.419706 0.419706
vt 0.383337 0.449553
vt 0.341844 0.471731
vt 0.031250 1.000000
vt 0.031250 0.500000
vt 0.000000 1.000000
vt 0.000000 0.500000
vt 0.750000 0.490000
vt 0.796822 0.485388
vt 0.841844 0.471731
vt 0.883337 0.449553
vt 0.919706 0.419706
vt 0.949553 0.383337
vt 0.971731 0.341844
vt 0.985388 0.296822
vt 0.990000 0.250000
vt 0.985388 0.203178
vt 0.971731 0.158156
vt 0.949553 0.116663
vt 0.919706 0.080294
vt 0.883337 0.050447
vt 0.841844 0.028269
vt 0.796822 0.014612
vt 0.750000 0.010000
vt 0.703178 0.014612
vt 0.658156 0.028269
vt 0.616663 0.050447
vt 0.580294 0.080294
vt 0.550447 0.116663
vt 0.528269 0.158156
vt 0.514612 0.203178
vt 0.510000 0.250000
vt 0.514612 0.296822
vt 0.528269 0.341844
vt 0.550447 0.383337
vt 0.580294 0.419706
vt 0.616663 0.449553
vt 0.658156 0.471731
vt 0.703178 0.485388
s 0
f 177/219/71 178/220/71 180/221/71 179/222/71
f 179/222/72 180/221/72 182/223/72 181/224/72
f 181/224/73 182/223/73 184/225/73 183/226/73
f 183/226/74 184/225/74 186/227/74 185/228/74
f 185/228/75 186/227/75 188/229/75 187/230/75
f 187/230/76 188/229/76 190/231/76 189/232/76
f 189/232/77 190/231/77 192/233/77 191/234/77
f 191/234/78 192/233/78 194/235/78 193/236/78
f 193/236/79 194/235/79 196/237/79 195/238/79
f 195/238/80 196/237/80 198/239/80 197/240/80
f 197/240/81 198/239/81 200/241/81 199/242/81
f 199/242/82 200/241/82 202/243/82 201/244/82
f 201/244/83 202/243/83 204/245/83 203/246/83
f 203/246/84 204/245/84 206/247/84 205/248/84
f 205/248/85 206/247/85 208/249/85 207/250/85
f 207/250/86 208/249/86 210/251/86 209/252/86
f 209/252/87 210/251/87 212/253/87 211/254/87
f 211/254/88 212/253/88 214/255/88 213/256/88
f 213/256/89 214/255/89 216/257/89 215/258/89
f 215/258/90 216/257/90 218/259/90 217/260/90
f 217/260/91 218/259/91 220/261/91 219/262/91
f 219/262/92 220/261/92 222/263/92 221/264/92
f 221/264/93 222/263/93 224/265/93 223/266/93
f 223/266/94 224/265/94 226/267/94 225/268/94
f 225/268/95 226/267/95 228/269/95 227/270/95
f 227/270/96 228/269/96 230/271/96 229/272/96
f 229/272/97 230/271/97 232/273/97 231/274/97
f 231/274/98 232/273/98 234/275/98 233/276/98
f 233/276/99 234/275/99 236/277/99 235/278/99
f 235/278/100 236/277/100 238/279/100 237/280/100
f 180/281/101 178/282/101 240/283/101 238/284/101 236/285/101 234/286/101 232/287/101 230/288/101 228/289/101 226/290/101 224/291/101 222/292/101 220/293/101 218/294/101 216/295/101 214/296/101 212/297/101 210/298/101 208/299/101 206/300/101 204/301/101 202/302/101 200/303/101 198/304/101 196/305/101 194/306/101 192/307/101 190/308/101 188/309/101 186/310/101 184/311/101 182/312/101
f 237/280/102 238/279/102 240/313/102 239/314/102
f 239/314/103 240/313/103 178/315/103 177/316/103
f 177/317/104 179/318/104 181/319/104 183/320/104 185/321/104 187/322/104 189/323/104 191/324/104 193/325/104 195/326/104 197/327/104 199/328/104 201/329/104 203/330/104 205/331/104 207/332/104 209/333/104 211/334/104 213/335/104 215/336/104 217/337/104 219/338/104 221/339/104 223/340/104 225/341/104 227/342/104 229/343/104 231/344/104 233/345/104 235/346/104 237/347/104 239/348/104
f 241/219/71 242/220/71 244/221/71 243/222/71
f 243/222/72 244/221/72 246/223/72 245/224/72
f 245/224/73 246/223/73 248/225/73 247/226/73
f 247/226/74 248/225/74 250/227/74 249/228/74
f 249/228/75 250/227/75 252/229/75 251/230/75
f 251/230/76 252/229/76 254/231/76 253/232/76
f 253/232/77 254/231/77 256/233/77 255/234/77
f 255/234/78 256/233/78 258/235/78 257/236/78
f 257/236/79 258/235/79 260/237/79 259/238/79
f 259/238/80 260/237/80 262/239/80 261/240/80
f 261/240/81 262/239/81 264/241/81 263/242/81
f 263/242/82 264/241/82 266/243/82 265/244/82
f 265/244/83 266/243/83 268/245/83 267/246/83
f 267/246/84 268/245/84 270/247/84 269/248/84
f 269/248/85 270/247/85 272/249/85 271/250/85
f 271/250/86 272/249/86 274/251/86 273/252/86
f 273/252/87 274/251/87 276/253/87 275/254/87
f 275/254/88 276/253/88 278/255/88 277/256/88
f 277/256/89 278/255/89 280/257/89 279/258/89
f 279/258/90 280/257/90 282/259/90 281/260/90
f 281/260/91 282/259/91 284/261/91 283/262/91
f 283/262/92 284/261/92 286/263/92 285/264/92
f 285/264/93 286/263/93 288/265/93 287/266/93
f 287/266/94 288/265/94 290/267/94 289/268/94
f 289/268/95 290/267/95 292/269/95 291/270/95
f 291/270/96 292/269/96 294/271/96 293/272/96
f 293/272/97 294/271/97 296/273/97 295/274/97
f 295/274/98 296/273/98 298/275/98 297/276/98
f 297/276/99 298/275/99 300/277/99 299/278/99
f 299/278/100 300/277/100 302/279/100 301/280/100
f 244/281/101 242/282/101 304/283/101 302/284/101 300/285/101 298/286/101 296/287/101 294/288/101 292/289/101 290/290/101 288/291/101 286/292/101 284/293/101 282/294/101 280/295/101 278/296/101 276/297/101 274/298/101 272/299/101 270/300/101 268/301/101 266/302/101 264/303/101 262/304/101 260/305/101 258/306/101 256/307/101 254/308/101 252/309/101 250/310/101 248/311/101 246/312/101
f 301/280/102 302/279/102 304/313/102 303/314/102
f 303/314/103 304/313/103 242/315/103 241/316/103
f 241/317/104 243/318/104 245/319/104 247/320/104 249/321/104 251/322/104 253/323/104 255/324/104 257/325/104 259/326/104 261/327/104 263/328/104 265/329/104 267/330/104 269/331/104 271/332/104 273/333/104 275/334/104 277/335/104 279/336/104 281/337/104 283/338/104 285/339/104 287/340/104 289/341/104 291/342/104 293/343/104 295/344/104 297/345/104 299/346/104 301/347/104 303/348/104
o Cylinder.002
v -0.726965 0.660470 -0.017191
v -0.726965 0.598908 -0.017191
v -0.731385 0.660470 -0.017626
v -0.731385 0.598908 -0.017626
v -0.735635 0.660470 -0.018915
v -0.735635 0.598908 -0.018915
v -0.739552 0.660470 -0.021009
v -0.739552 0.598908 -0.021009
v -0.742985 0.660470 -0.023827
v -0.742985 0.598908 -0.023827
v -0.745803 0.660470 -0.027260
v -0.745803 0.598908 -0.027260
v -0.747896 0.660470 -0.031177
v -0.747896 0.598908 -0.031177
v -0.749185 0.660470 -0.035427
v -0.749185 0.598908 -0.035427
v -0.749621 0.660470 -0.039847
v -0.749621 0.598908 -0.039847
v -0.749185 0.660470 -0.044267
v -0.749185 0.598908 -0.044267
v -0.747896 0.660470 -0.048517
v -0.747896 0.598908 -0.048517
v -0.745803 0.660470 -0.052434
v -0.745803 0.598908 -0.052434
v -0.742985 0.660470 -0.055867
v -0.742985 0.598908 -0.055867
v -0.739552 0.660470 -0.058685
v -0.739552 0.598908 -0.058685
v -0.735635 0.660470 -0.060778
v -0.735635 0.598908 -0.060778
v -0.731385 0.660470 -0.062067
v -0.731385 0.598908 -0.062067
v -0.726965 0.660470 -0.062503
v -0.726965 0.598908 -0.062503
v -0.722545 0.660470 -0.062067
v -0.722545 0.598908 -0.062067
v -0.718295 0.660470 -0.060778
v -0.718295 0.598908 -0.060778
v -0.714378 0.660470 -0.058685
v -0.714378 0.598908 -0.058685
v -0.710945 0.660470 -0.055867
v -0.710945 0.598908 -0.055867
v -0.708127 0.660470 -0.052434
v -0.708127 0.598908 -0.052434
v -0.706033 0.660470 -0.048517
v -0.706033 0.598908 -0.048517
v -0.704744 0.660470 -0.044267
v -0.704744 0.598908 -0.044267
v -0.704309 0.660470 -0.039847
v -0.704309 0.598908 -0.039847
v -0.704744 0.660470 -0.035427
v -0.704744 0.598908 -0.035427
v -0.706033 0.660470 -0.031177
v -0.706033 0.598908 -0.031177
v -0.708127 0.660470 -0.027260
v -0.708127 0.598908 -0.027260
v -0.710945 0.660470 -0.023827
v -0.710945 0.598908 -0.023827
v -0.714378 0.660470 -0.021009
v -0.714378 0.598908 -0.021009
v -0.718295 0.660470 -0.018915
v -0.718295 0.598908 -0.018915
v -0.722545 0.660470 -0.017626
v -0.722545 0.598908 -0.017626
vn -0.0980 -0.0000 0.9952
vn -0.2903 -0.0000 0.9569
vn -0.4714 -0.0000 0.8819
vn -0.6344 -0.0000 0.7730
vn -0.7730 -0.0000 0.6344
vn -0.8819 -0.0000 0.4714
vn -0.9569 -0.0000 0.2903
vn -0.9952 -0.0000 0.0980
vn -0.9952 -0.0000 -0.0980
vn -0.9569 -0.0000 -0.2903
vn -0.8819 -0.0000 -0.4714
vn -0.7730 -0.0000 -0.6344
vn -0.6344 -0.0000 -0.7730
vn -0.4714 -0.0000 -0.8819
vn -0.2903 -0.0000 -0.9569
vn -0.0980 -0.0000 -0.9952
vn 0.0980 -0.0000 -0.9952
vn 0.2903 -0.0000 -0.9569
vn 0.4714 -0.0000 -0.8819
vn 0.6344 -0.0000 -0.7730
vn 0.7730 -0.0000 -0.6344
vn 0.8819 -0.0000 -0.4714
vn 0.9569 -0.0000 -0.2903
vn 0.9952 -0.0000 -0.0980
vn 0.9952 -0.0000 0.0980
vn 0.9569 -0.0000 0.2903
vn 0.8819 -0.0000 0.4714
vn 0.7730 -0.0000 0.6344
vn 0.6344 -0.0000 0.7730
vn 0.4714 -0.0000 0.8819
vn -0.0000 -1.0000 -0.0000
vn 0.2903 -0.0000 0.9569
vn 0.0980 -0.0000 0.9952
vn -0.0000 1.0000 -0.0000
vt 1.000000 0.500000
vt 1.000000 1.000000
vt 0.968750 1.000000
vt 0.968750 0.500000
vt 0.937500 1.000000
vt 0.937500 0.500000
vt 0.906250 1.000000
vt 0.906250 0.500000
vt 0.875000 1.000000
vt 0.875000 0.500000
vt 0.843750 1.000000
vt 0.843750 0.500000
vt 0.812500 1.000000
vt 0.812500 0.500000
vt 0.781250 1.000000
vt 0.781250 0.500000
vt 0.750000 1.000000
vt 0.750000 0.500000
vt 0.718750 1.000000
vt 0.718750 0.500000
vt 0.687500 1.000000
vt 0.687500 0.500000
vt 0.656250 1.000000
vt 0.656250 0.500000
vt 0.625000 1.000000
vt 0.625000 0.500000
vt 0.593750 1.000000
vt 0.593750 0.500000
vt 0.562500 1.000000
vt 0.562500 0.500000
vt 0.531250 1.000000
vt 0.531250 0.500000
vt 0.500000 1.000000
vt 0.500000 0.500000
vt 0.468750 1.000000
vt 0.468750 0.500000
vt 0.437500 1.000000
vt 0.437500 0.500000
vt 0.406250 1.000000
vt 0.406250 0.500000
vt 0.375000 1.000000
vt 0.375000 0.500000
vt 0.343750 1.000000
vt 0.343750 0.500000
vt 0.312500 1.000000
vt 0.312500 0.500000
vt 0.281250 1.000000
vt 0.281250 0.500000
vt 0.250000 1.000000
vt 0.250000 0.500000
vt 0.218750 1.000000
vt 0.218750 0.500000
vt 0.187500 1.000000
vt 0.187500 0.500000
vt 0.156250 1.000000
vt 0.156250 0.500000
vt 0.125000 1.000000
vt 0.125000 0.500000
vt 0.093750 1.000000
vt 0.093750 0.500000
vt 0.062500 1.000000
vt 0.062500 0.500000
vt 0.296822 0.485388
vt 0.250000 0.490000
vt 0.203178 0.485388
vt 0.158156 0.471731
vt 0.116663 0.449553
vt 0.080294 0.419706
vt 0.050447 0.383337
vt 0.028269 0.341844
vt 0.014612 0.296822
vt 0.010000 0.250000
vt 0.014612 0.203178
vt 0.028269 0.158156
vt 0.050447 0.116663
vt 0.080294 0.080294
vt 0.116663 0.050447
vt 0.158156 0.028269
vt 0.203178 0.014612
vt 0.250000 0.010000
vt 0.296822 0.014612
vt 0.341844 0.028269
vt 0.383337 0.050447
vt 0.419706 0.080294
vt 0.449553 0.116663
vt 0.471731 0.158156
vt 0.485388 0.203178
vt 0.490000 0.250000
vt 0.485388 0.296822
vt 0.471731 0.341844
vt 0.449553 0.383337
vt 0.419706 0.419706
vt 0.383337 0.449553
vt 0.341844 0.471731
vt 0.031250 1.000000
vt 0.031250 0.500000
vt 0.000000 1.000000
vt 0.000000 0.500000
vt 0.750000 0.490000
vt 0.796822 0.485388
vt 0.841844 0.471731
vt 0.883337 0.449553
vt 0.919706 0.419706
vt 0.949553 0.383337
vt 0.971731 0.341844
vt 0.985388 0.296822
vt 0.990000 0.250000
vt 0.985388 0.203178
vt 0.971731 0.158156
vt 0.949553 0.116663
vt 0.919706 0.080294
vt 0.883337 0.050447
vt 0.841844 0.028269
vt 0.796822 0.014612
vt 0.750000 0.010000
vt 0.703178 0.014612
vt 0.658156 0.028269
vt 0.616663 0.050447
vt 0.580294 0.080294
vt 0.550447 0.116663
vt 0.528269 0.158156
vt 0.514612 0.203178
vt 0.510000 0.250000
vt 0.514612 0.296822
vt 0.528269 0.341844
vt 0.550447 0.383337
vt 0.580294 0.419706
vt 0.616663 0.449553
vt 0.658156 0.471731
vt 0.703178 0.485388
s 0
f 305/349/105 307/352/105 308/351/105 306/350/105
f 307/352/106 309/354/106 310/353/106 308/351/106
f 309/354/107 311/356/107 312/355/107 310/353/107
f 311/356/108 313/358/108 314/357/108 312/355/108
f 313/358/109 315/360/109 316/359/109 314/357/109
f 315/360/110 317/362/110 318/361/110 316/359/110
f 317/362/111 319/364/111 320/363/111 318/361/111
f 319/364/112 321/366/112 322/365/112 320/363/112
f 321/366/113 323/368/113 324/367/113 322/365/113
f 323/368/114 325/370/114 326/369/114 324/367/114
f 325/370/115 327/372/115 328/371/115 326/369/115
f 327/372/116 329/374/116 330/373/116 328/371/116
f 329/374/117 331/376/117 332/375/117 330/373/117
f 331/376/118 333/378/118 334/377/118 332/375/118
f 333/378/119 335/380/119 336/379/119 334/377/119
f 335/380/120 337/382/120 338/381/120 336/379/120
f 337/382/121 339/384/121 340/383/121 338/381/121
f 339/384/122 341/386/122 342/385/122 340/383/122
f 341/386/123 343/388/123 344/387/123 342/385/123
f 343/388/124 345/390/124 346/389/124 344/387/124
f 345/390/125 347/392/125 348/391/125 346/389/125
f 347/392/126 349/394/126 350/393/126 348/391/126
f 349/394/127 351/396/127 352/395/127 350/393/127
f 351/396/128 353/398/128 354/397/128 352/395/128
f 353/398/129 355/400/129 356/399/129 354/397/129
f 355/400/130 357/402/130 358/401/130 356/399/130
f 357/402/131 359/404/131 360/403/131 358/401/131
f 359/404/132 361/406/132 362/405/132 360/403/132
f 361/406/133 363/408/133 364/407/133 362/405/133
f 363/408/134 365/410/134 366/409/134 364/407/134
f 308/411/135 310/442/135 312/441/135 314/440/135 316/439/135 318/438/135 320/437/135 322/436/135 324/435/135 326/434/135 328/433/135 330/432/135 332/431/135 334/430/135 336/429/135 338/428/135 340/427/135 342/426/135 344/425/135 346/424/135 348/423/135 350/422/135 352/421/135 354/420/135 356/419/135 358/418/135 360/417/135 362/416/135 364/415/135 366/414/135 368/413/135 306/412/135
f 365/410/136 367/444/136 368/443/136 366/409/136
f 367/444/137 305/446/137 306/445/137 368/443/137
f 305/447/138 367/478/138 365/477/138 363/476/138 361/475/138 359/474/138 357/473/138 355/472/138 353/471/138 351/470/138 349/469/138 347/468/138 345/467/138 343/466/138 341/465/138 339/464/138 337/463/138 335/462/138 333/461/138 331/460/138 329/459/138 327/458/138 325/457/138 323/456/138 321/455/138 319/454/138 317/453/138 315/452/138 313/451/138 311/450/138 309/449/138 307/448/138
o Cylinder.003
v -0.926190 0.660470 -0.017191
v -0.926190 0.598908 -0.017191
v -0.930610 0.660470 -0.017626
v -0.930610 0.598908 -0.017626
v -0.934860 0.660470 -0.018915
v -0.934860 0.598908 -0.018915
v -0.938777 0.660470 -0.021009
v -0.938777 0.598908 -0.021009
v -0.942210 0.660470 -0.023827
v -0.942210 0.598908 -0.023827
v -0.945028 0.660470 -0.027260
v -0.945028 0.598908 -0.027260
v -0.947122 0.660470 -0.031177
v -0.947122 0.598908 -0.031177
v -0.948411 0.660470 -0.035427
v -0.948411 0.598908 -0.035427
v -0.948846 0.660470 -0.039847
v -0.948846 0.598908 -0.039847
v -0.948411 0.660470 -0.044267
v -0.948411 0.598908 -0.044267
v -0.947122 0.660470 -0.048517
v -0.947122 0.598908 -0.048517
v -0.945028 0.660470 -0.052434
v -0.945028 0.598908 -0.052434
v -0.942210 0.660470 -0.055867
v -0.942210 0.598908 -0.055867
v -0.938777 0.660470 -0.058685
v -0.938777 0.598908 -0.058685
v -0.934860 0.660470 -0.060778
v -0.934860 0.598908 -0.060778
v -0.930610 0.660470 -0.062067
v -0.930610 0.598908 -0.062067
v -0.926190 0.660470 -0.062503
v -0.926190 0.598908 -0.062503
v -0.921770 0.660470 -0.062067
v -0.921770 0.598908 -0.062067
v -0.917520 0.660470 -0.060778
v -0.917520 0.598908 -0.060778
v -0.913603 0.660470 -0.058685
v -0.913603 0.598908 -0.058685
v -0.910170 0.660470 -0.055867
v -0.910170 0.598908 -0.055867
v -0.907352 0.660470 -0.052434
v -0.907352 0.598908 -0.052434
v -0.905259 0.660470 -0.048517
v -0.905259 0.598908 -0.048517
v -0.903970 0.660470 -0.044267
v -0.903970 0.598908 -0.044267
v -0.903534 0.660470 -0.039847
v -0.903534 0.598908 -0.039847
v -0.903970 0.660470 -0.035427
v -0.903970 0.598908 -0.035427
v -0.905259 0.660470 -0.031177
v -0.905259 0.598908 -0.031177
v -0.907352 0.660470 -0.027260
v -0.907352 0.598908 -0.027260
v -0.910170 0.660470 -0.023827
v -0.910170 0.598908 -0.023827
v -0.913603 0.660470 -0.021009
v -0.913603 0.598908 -0.021009
v -0.917520 0.660470 -0.018915
v -0.917520 0.598908 -0.018915
v -0.921770 0.660470 -0.017626
v -0.921770 0.598908 -0.017626
vn -0.0980 -0.0000 0.9952
vn -0.2903 -0.0000 0.9569
vn -0.4714 -0.0000 0.8819
vn -0.6344 -0.0000 0.7730
vn -0.7730 -0.0000 0.6344
vn -0.8819 -0.0000 0.4714
vn -0.9569 -0.0000 0.2903
vn -0.9952 -0.0000 0.0980
vn -0.9952 -0.0000 -0.0980
vn -0.9569 -0.0000 -0.2903
vn -0.8819 -0.0000 -0.4714
vn -0.7730 -0.0000 -0.6344
vn -0.6344 -0.0000 -0.7730
vn -0.4714 -0.0000 -0.8819
vn -0.2903 -0.0000 -0.9569
vn -0.0980 -0.0000 -0.9952
vn 0.0980 -0.0000 -0.9952
vn 0.2903 -0.0000 -0.9569
vn 0.4714 -0.0000 -0.8819
vn 0.6344 -0.0000 -0.7730
vn 0.7730 -0.0000 -0.6344
vn 0.8819 -0.0000 -0.4714
vn 0.9569 -0.0000 -0.2903
vn 0.9952 -0.0000 -0.0980
vn 0.9952 -0.0000 0.0980
vn 0.9569 -0.0000 0.2903
vn 0.8819 -0.0000 0.4714
vn 0.7730 -0.0000 0.6344
vn 0.6344 -0.0000 0.7730
vn 0.4714 -0.0000 0.8819
vn -0.0000 -1.0000 -0.0000
vn 0.2903 -0.0000 0.9569
vn 0.0980 -0.0000 0.9952
vn -0.0000 1.0000 -0.0000
vt 1.000000 0.500000
vt 1.000000 1.000000
vt 0.968750 1.000000
vt 0.968750 0.500000
vt 0.937500 1.000000
vt 0.937500 0.500000
vt 0.906250 1.000000
vt 0.906250 0.500000
vt 0.875000 1.000000
vt 0.875000 0.500000
vt 0.843750 1.000000
vt 0.843750 0.500000
vt 0.812500 1.000000
vt 0.812500 0.500000
vt 0.781250 1.000000
vt 0.781250 0.500000
vt 0.750000 1.000000
vt 0.750000 0.500000
vt 0.718750 1.000000
vt 0.718750 0.500000
vt 0.687500 1.000000
vt 0.687500 0.500000
vt 0.656250 1.000000
vt 0.656250 0.500000
vt 0.625000 1.000000
vt 0.625000 0.500000
vt 0.593750 1.000000
vt 0.593750 0.500000
vt 0.562500 1.000000
vt 0.562500 0.500000
vt 0.531250 1.000000
vt 0.531250 0.500000
vt 0.500000 1.000000
vt 0.500000 0.500000
vt 0.468750 1.000000
vt 0.468750 0.500000
vt 0.437500 1.000000
vt 0.437500 0.500000
vt 0.406250 1.000000
vt 0.406250 0.500000
vt 0.375000 1.000000
vt 0.375000 0.500000
vt 0.343750 1.000000
vt 0.343750 0.500000
vt 0.312500 1.000000
vt 0.312500 0.500000
vt 0.281250 1.000000
vt 0.281250 0.500000
vt 0.250000 1.000000
vt 0.250000 0.500000
vt 0.218750 1.000000
vt 0.218750 0.500000
vt 0.187500 1.000000
vt 0.187500 0.500000
vt 0.156250 1.000000
vt 0.156250 0.500000
vt 0.125000 1.000000
vt 0.125000 0.500000
vt 0.093750 1.000000
vt 0.093750 0.500000
vt 0.062500 1.000000
vt 0.062500 0.500000
vt 0.296822 0.485388
vt 0.250000 0.490000
vt 0.203178 0.485388
vt 0.158156 0.471731
vt 0.116663 0.449553
vt 0.080294 0.419706
vt 0.050447 0.383337
vt 0.028269 0.341844
vt 0.014612 0.296822
vt 0.010000 0.250000
vt 0.014612 0.203178
vt 0.028269 0.158156
vt 0.050447 0.116663
vt 0.080294 0.080294
vt 0.116663 0.050447
vt 0.158156 0.028269
vt 0.203178 0.014612
vt 0.250000 0.010000
vt 0.296822 0.014612
vt 0.341844 0.028269
vt 0.383337 0.050447
vt 0.419706 0.080294
vt 0.449553 0.116663
vt 0.471731 0.158156
vt 0.485388 0.203178
vt 0.490000 0.250000
vt 0.485388 0.296822
vt 0.471731 0.341844
vt 0.449553 0.383337
vt 0.419706 0.419706
vt 0.383337 0.449553
vt 0.341844 0.471731
vt 0.031250 1.000000
vt 0.031250 0.500000
vt 0.000000 1.000000
vt 0.000000 0.500000
vt 0.750000 0.490000
vt 0.796822 0.485388
vt 0.841844 0.471731
vt 0.883337 0.449553
vt 0.919706 0.419706
vt 0.949553 0.383337
vt 0.971731 0.341844
vt 0.985388 0.296822
vt 0.990000 0.250000
vt 0.985388 0.203178
vt 0.971731 0.158156
vt 0.949553 0.116663
vt 0.919706 0.080294
vt 0.883337 0.050447
vt 0.841844 0.028269
vt 0.796822 0.014612
vt 0.750000 0.010000
vt 0.703178 0.014612
vt 0.658156 0.028269
vt 0.616663 0.050447
vt 0.580294 0.080294
vt 0.550447 0.116663
vt 0.528269 0.158156
vt 0.514612 0.203178
vt 0.510000 0.250000
vt 0.514612 0.296822
vt 0.528269 0.341844
vt 0.550447 0.383337
vt 0.580294 0.419706
vt 0.616663 0.449553
vt 0.658156 0.471731
vt 0.703178 0.485388
s 0
f 369/479/139 371/482/139 372/481/139 370/480/139
f 371/482/140 373/484/140 374/483/140 372/481/140
f 373/484/141 375/486/141 376/485/141 374/483/141
f 375/486/142 377/488/142 378/487/142 376/485/142
f 377/488/143 379/490/143 380/489/143 378/487/143
f 379/490/144 381/492/144 382/491/144 380/489/144
f 381/492/145 383/494/145 384/493/145 382/491/145
f 383/494/146 385/496/146 386/495/146 384/493/146
f 385/496/147 387/498/147 388/497/147 386/495/147
f 387/498/148 389/500/148 390/499/148 388/497/148
f 389/500/149 391/502/149 392/501/149 390/499/149
f 391/502/150 393/504/150 394/503/150 392/501/150
f 393/504/151 395/506/151 396/505/151 394/503/151
f 395/506/152 397/508/152 398/507/152 396/505/152
f 397/508/153 399/510/153 400/509/153 398/507/153
f 399/510/154 401/512/154 402/511/154 400/509/154
f 401/512/155 403/514/155 404/513/155 402/511/155
f 403/514/156 405/516/156 406/515/156 404/513/156
f 405/516/157 407/518/157 408/517/157 406/515/157
f 407/518/158 409/520/158 410/519/158 408/517/158
f 409/520/159 411/522/159 412/521/159 410/519/159
f 411/522/160 413/524/160 414/523/160 412/521/160
f 413/524/161 415/526/161 416/525/161 414/523/161
f 415/526/162 417/528/162 418/527/162 416/525/162
f 417/528/163 419/530/163 420/529/163 418/527/163
f 419/530/164 421/532/164 422/531/164 420/529/164
f 421/532/165 423/534/165 424/533/165 422/531/165
f 423/534/166 425/536/166 426/535/166 424/533/166
f 425/536/167 427/538/167 428/537/167 426/535/167
f 427/538/168 429/540/168 430/539/168 428/537/168
f 372/541/169 374/572/169 376/571/169 378/570/169 380/569/169 382/568/169 384/567/169 386/566/169 388/565/169 390/564/169 392/563/169 394/562/169 396/561/169 398/560/169 400/559/169 402/558/169 404/557/169 406/556/169 408/555/169 410/554/169 412/553/169 414/552/169 416/551/169 418/550/169 420/549/169 422/548/169 424/547/169 426/546/169 428/545/169 430/544/169 432/543/169 370/542/169
f 429/540/170 431/574/170 432/573/170 430/539/170
f 431/574/171 369/576/171 370/575/171 432/573/171
f 369/577/172 431/608/172 429/607/172 427/606/172 425/605/172 423/604/172 421/603/172 419/602/172 417/601/172 415/600/172 413/599/172 411/598/172 409/597/172 407/596/172 405/595/172 403/594/172 401/593/172 399/592/172 397/591/172 395/590/172 393/589/172 391/588/172 389/587/172 387/586/172 385/585/172 383/584/172 381/583/172 379/582/172 377/581/172 375/580/172 373/579/172 371/578/172
o Cube.006
v -0.621775 0.777960 0.216727
v -0.621775 0.999667 0.216727
v -0.621775 0.777960 -0.156628
v -0.621775 0.999667 -0.156628
v -0.827407 0.777960 -0.156628
v -0.827407 0.999667 -0.156628
v -0.827407 0.777960 0.216727
v -0.827407 0.999667 0.216727
vn -0.0000 -0.0000 -1.0000
vn 1.0000 -0.0000 -0.0000
vn -0.0000 -1.0000 -0.0000
vn -0.0000 1.0000 -0.0000
vn -0.0000 -0.0000 1.0000
vn -1.0000 -0.0000 -0.0000
vt 0.375000 0.375000
vt 0.625000 0.375000
vt 0.625000 0.500000
vt 0.375000 0.500000
vt 0.625000 0.750000
vt 0.375000 0.750000
vt 0.250000 0.500000
vt 0.250000 0.750000
vt 0.750000 0.500000
vt 0.750000 0.750000
vt 0.625000 0.875000
vt 0.375000 0.875000
s 0
f 437/609/173 438/610/173 436/611/173 435/612/173
f 435/612/174 436/611/174 434/613/174 433/614/174
f 437/615/175 435/612/175 433/614/175 439/616/175
f 436/611/176 438/617/176 440/618/176 434/613/176
f 433/614/177 434/613/177 440/619/177 439/620/177
f 440/619/178 438/610/178 437/615/178 439/620/178
o Cube.007
v -0.771822 0.400834 0.005010
v -0.797919 0.603241 0.031108
v -0.771822 0.400834 -0.084704
v -0.797919 0.603241 -0.110801
v -0.682108 0.400834 0.005010
v -0.656011 0.603241 0.031108
v -0.682108 0.400834 -0.084704
v -0.656011 0.603241 -0.110801
v -0.682108 0.400834 0.005010
v -0.682108 0.400834 -0.084704
v -0.682108 0.400834 0.005010
v -0.682108 0.400834 -0.084704
v -0.682108 0.400834 0.005010
v -0.682108 0.400834 -0.084704
v -0.682108 0.400834 0.005010
v -0.682108 0.400834 -0.084704
v -0.682108 0.324057 0.004754
v -0.682108 0.324057 -0.084960
v -0.770342 0.400834 0.005010
v -0.770342 0.400834 -0.084704
v -0.770342 0.324057 0.004754
v -0.770342 0.324057 -0.084960
vn -0.9918 -0.1279 -0.0000
vn -0.0000 -0.1279 -0.9918
vn 0.9918 -0.1279 -0.0000
vn -0.0000 -0.1279 0.9918
vn -0.0000 -1.0000 -0.0000
vn -0.0000 1.0000 -0.0000
vn -1.0000 -0.0000 -0.0000
vt 0.375000 0.000000
vt 0.625000 0.000000
vt 0.625000 0.250000
vt 0.375000 0.250000
vt 0.625000 0.500000
vt 0.375000 0.500000
vt 0.625000 0.750000
vt 0.375000 0.750000
vt 0.625000 1.000000
vt 0.375000 1.000000
vt 0.125000 0.500000
vt 0.125000 0.750000
vt 0.875000 0.500000
vt 0.875000 0.750000
s 0
f 441/621/179 442/622/179 444/623/179 443/624/179
f 443/624/180 444/623/180 448/625/180 447/626/180
f 447/626/181 448/625/181 446/627/181 445/628/181
f 445/628/182 446/627/182 442/629/182 441/630/182
f 443/631/183 447/626/183 445/628/183 441/632/183
f 448/625/184 444/633/184 442/634/184 446/627/184
f 445/628/184 447/626/184 450/626/184 449/628/184
f 449/628/184 450/626/184 452/626/184 451/628/184
f 451/628/184 452/626/184 454/626/184 453/628/184
f 453/628/184 454/626/184 456/626/184 455/628/184
f 455/628/185 456/626/185 458/626/185 457/628/185
f 459/628/185 460/626/185 462/626/185 461/628/185
o Cube.008
v -0.969919 0.400834 0.005010
v -0.996016 0.603241 0.031108
v -0.969919 0.400834 -0.084704
v -0.996016 0.603241 -0.110801
v -0.880205 0.400834 0.005010
v -0.854108 0.603241 0.031108
v -0.880205 0.400834 -0.084704
v -0.854108 0.603241 -0.110801
v -0.880205 0.400834 0.005010
v -0.880205 0.400834 -0.084704
v -0.880205 0.324057 0.004754
v -0.880205 0.324057 -0.084960
v -0.968439 0.400834 0.005010
v -0.968439 0.400834 -0.084704
v -0.968439 0.324057 0.004754
v -0.968439 0.324057 -0.084960
vn -0.9918 -0.1279 -0.0000
vn -0.0000 -0.1279 -0.9918
vn 0.9918 -0.1279 -0.0000
vn -0.0000 -0.1279 0.9918
vn -0.0000 -1.0000 -0.0000
vn -0.0000 1.0000 -0.0000
vn -1.0000 -0.0000 -0.0000
vt 0.375000 0.000000
vt 0.625000 0.000000
vt 0.625000 0.250000
vt 0.375000 0.250000
vt 0.625000 0.500000
vt 0.375000 0.500000
vt 0.625000 0.750000
vt 0.375000 0.750000
vt 0.625000 1.000000
vt 0.375000 1.000000
vt 0.125000 0.500000
vt 0.125000 0.750000
vt 0.875000 0.500000
vt 0.875000 0.750000
s 0
f 463/635/186 464/636/186 466/637/186 465/638/186
f 465/638/187 466/637/187 470/639/187 469/640/187
f 469/640/188 470/639/188 468/641/188 467/642/188
f 467/642/189 468/641/189 464/643/189 463/644/189
f 465/645/190 469/640/190 467/642/190 463/646/190
f 470/639/191 466/647/191 464/648/191 468/641/191
f 471/642/192 472/640/192 474/640/192 473/642/192
f 475/642/192 476/640/192 478/640/192 477/642/192
